<?xml version="1.0" standalone="no"?>
<!DOCTYPE svg PUBLIC "-//W3C//DTD SVG 20010904//EN"
 "http://www.w3.org/TR/2001/REC-SVG-20010904/DTD/svg10.dtd">
<svg version="1.0" xmlns="http://www.w3.org/2000/svg"
 width="500.000000pt" height="269.000000pt" viewBox="0 0 500.000000 269.000000"
 preserveAspectRatio="xMidYMid meet">

<g transform="translate(0.000000,269.000000) scale(0.100000,-0.100000)"
fill="#000000" stroke="none">
<path d="M1004 2537 c-2 -7 166 -456 374 -997 321 -834 382 -985 399 -988 18
-3 26 10 51 75 16 43 155 400 307 793 153 393 280 725 283 738 l4 22 -189 0
-190 0 -129 -360 c-71 -198 -131 -360 -134 -360 -3 0 -86 226 -184 503 -99
276 -188 521 -197 545 l-18 42 -186 0 c-141 0 -187 -3 -191 -13z"/>
<path d="M3035 2536 c-242 -56 -423 -230 -470 -453 -43 -203 8 -389 144 -523
110 -109 223 -158 430 -185 128 -17 178 -39 230 -102 109 -132 35 -319 -139
-355 l-60 -12 0 -178 0 -178 35 0 c69 0 191 32 274 72 151 72 255 201 297 368
24 94 15 261 -18 352 -51 138 -150 247 -281 312 -90 44 -164 63 -293 75 -116
11 -166 31 -212 87 -42 51 -56 112 -41 183 15 72 52 123 114 158 43 24 61 28
130 27 62 0 89 -5 121 -21 55 -29 102 -84 110 -130 14 -76 5 -73 199 -73 133
0 175 3 176 13 13 176 -91 372 -255 479 -125 81 -342 118 -491 84z"/>
<path d="M688 2314 c-78 -18 -171 -67 -216 -112 -84 -84 -101 -167 -102 -490
0 -227 -5 -256 -51 -299 -38 -35 -113 -63 -184 -70 l-65 -6 0 -92 0 -92 70 -5
c88 -7 165 -43 200 -94 25 -37 25 -41 31 -313 7 -307 14 -345 73 -423 66 -86
191 -143 342 -156 l84 -8 0 93 0 93 -38 0 c-115 0 -211 67 -231 159 -6 30 -11
151 -11 280 0 242 -5 278 -51 343 -32 45 -92 84 -159 104 -33 10 -60 21 -60
25 0 3 16 9 36 12 83 14 166 74 207 151 20 38 22 59 27 311 5 264 6 271 30
315 31 55 108 98 193 107 l57 6 0 88 0 89 -62 -1 c-35 0 -89 -7 -120 -15z"/>
<path d="M3982 2243 l3 -88 61 -7 c95 -10 169 -55 197 -118 7 -15 14 -131 18
-290 4 -184 10 -277 20 -305 7 -22 36 -63 65 -92 40 -40 65 -56 113 -70 34
-11 62 -23 62 -28 0 -5 -28 -17 -62 -28 -48 -14 -73 -30 -113 -70 -29 -29 -58
-70 -65 -92 -10 -28 -16 -120 -20 -305 -7 -298 -9 -306 -82 -360 -36 -26 -99
-45 -169 -52 -25 -3 -25 -4 -25 -92 l0 -90 63 3 c164 7 312 79 378 183 46 72
54 133 54 389 0 252 7 298 51 345 31 33 114 65 188 72 l66 7 0 90 0 90 -69 8
c-116 12 -189 56 -221 132 -5 11 -12 144 -15 295 -8 313 -12 337 -85 418 -24
26 -66 60 -93 75 -65 36 -189 67 -264 67 l-59 0 3 -87z"/>
</g>
</svg>
